<svg width="180" height="189" viewBox="0 0 180 189" fill="none" xmlns="http://www.w3.org/2000/svg">
<g filter="url(#filter0_d_897_998)">
<path d="M30.6195 166.083C38.1242 169.809 45.3438 173.556 53.6275 177.652C49.9985 181.212 45.5561 181.402 41.8697 179.963C30.8107 175.646 19.7076 171.046 9.04286 165.556C2.9315 162.44 2.90671 156.724 8.29089 153.319C17.195 147.506 26.4723 142.237 35.7056 136.685C36.232 136.36 36.8789 135.883 37.3287 135.992C39.0839 136.146 40.7624 136.735 42.5616 137.172C42.2113 138.628 42.5194 140.606 41.6313 141.387C38.6052 144.187 35.3705 146.573 32.3003 149.09C30.6447 150.501 28.945 151.629 27.8387 154.713C31.1403 154.609 34.6066 154.635 37.9083 154.531C105.783 149.445 157.062 101.721 166.255 35.7093C167.38 27.1916 167.486 18.6074 168.162 9.98044C168.412 6.95994 168.828 4.07004 169.079 1.04953C169.769 0.854826 170.504 0.942694 171.195 0.747986C172.315 2.37936 174.17 4.09861 174.313 5.94606C175.117 12.0322 175.921 18.1183 175.869 24.2686C175.592 85.4671 135.142 138.812 74.6342 156.925C63.0525 160.365 50.7128 161.719 38.7904 163.898C36.2677 164.373 33.8216 164.414 31.255 164.606C30.8492 164.779 30.652 165.366 30.6195 166.083Z" fill="#020202"/>
</g>
<defs>
<filter id="filter0_d_897_998" x="0.351562" y="0.748047" width="179.523" height="188.055" filterUnits="userSpaceOnUse" color-interpolation-filters="sRGB">
<feFlood flood-opacity="0" result="BackgroundImageFix"/>
<feColorMatrix in="SourceAlpha" type="matrix" values="0 0 0 0 0 0 0 0 0 0 0 0 0 0 0 0 0 0 127 0" result="hardAlpha"/>
<feOffset dy="4"/>
<feGaussianBlur stdDeviation="2"/>
<feComposite in2="hardAlpha" operator="out"/>
<feColorMatrix type="matrix" values="0 0 0 0 0 0 0 0 0 0 0 0 0 0 0 0 0 0 0.25 0"/>
<feBlend mode="normal" in2="BackgroundImageFix" result="effect1_dropShadow_897_998"/>
<feBlend mode="normal" in="SourceGraphic" in2="effect1_dropShadow_897_998" result="shape"/>
</filter>
</defs>
</svg>
