<svg width="1920" height="1080" viewBox="0 0 1920 1080" fill="none" xmlns="http://www.w3.org/2000/svg">
<g clip-path="url(#clip0_897_1182)">
<rect width="1920" height="1080" fill="white"/>
<g filter="url(#filter0_d_897_1182)">
<path d="M-104.695 1150.89V-54.0225C-104.695 -82.0255 -104.695 -96.027 -95.9959 -104.726C-87.2965 -113.426 -73.295 -113.426 -45.2919 -113.426H2471.08C2499.08 -113.426 2513.08 -113.426 2521.78 -104.726C2530.48 -96.027 2530.48 -82.0255 2530.48 -54.0226V556.303V1150.89C2530.48 1178.89 2530.48 1192.89 2521.78 1201.59C2513.08 1210.29 2499.08 1210.29 2471.08 1210.29H2276.89C2276.89 1236.65 2276.89 1249.83 2269.12 1258.33C2268.52 1258.99 2267.89 1259.62 2267.23 1260.22C2258.72 1268 2245.54 1268 2219.19 1268H2084.99C2058.63 1268 2045.45 1268 2036.94 1260.22C2036.29 1259.62 2035.66 1258.99 2035.06 1258.33C2027.28 1249.83 2027.28 1236.65 2027.28 1210.29H299.851C299.851 1236.65 299.851 1249.83 292.073 1258.33C291.473 1258.99 290.844 1259.62 290.187 1260.22C281.677 1268 268.5 1268 242.146 1268H125.819C99.4643 1268 86.287 1268 77.7773 1260.22C77.1209 1259.62 76.4917 1258.99 75.8917 1258.33C68.114 1249.83 68.114 1236.65 68.114 1210.29H-45.2921C-73.295 1210.29 -87.2965 1210.29 -95.9959 1201.59C-104.695 1192.89 -104.695 1178.89 -104.695 1150.89Z" fill="url(#paint0_linear_897_1182)"/>
<path d="M68.114 1210.29H-45.2921C-73.295 1210.29 -87.2965 1210.29 -95.9959 1201.59C-104.695 1192.89 -104.695 1178.89 -104.695 1150.89V-54.0225C-104.695 -82.0255 -104.695 -96.027 -95.9959 -104.726C-87.2965 -113.426 -73.295 -113.426 -45.2919 -113.426H2471.08C2499.08 -113.426 2513.08 -113.426 2521.78 -104.726C2530.48 -96.027 2530.48 -82.0255 2530.48 -54.0226V556.303V1150.89C2530.48 1178.89 2530.48 1192.89 2521.78 1201.59C2513.08 1210.29 2499.08 1210.29 2471.08 1210.29H2276.89M68.114 1210.29V1210.29C68.114 1236.65 68.114 1249.83 75.8917 1258.33C76.4917 1258.99 77.1209 1259.62 77.7773 1260.22C86.287 1268 99.4643 1268 125.819 1268H242.146C268.5 1268 281.677 1268 290.187 1260.22C290.844 1259.62 291.473 1258.99 292.073 1258.33C299.851 1249.83 299.851 1236.65 299.851 1210.29V1210.29M68.114 1210.29H299.851M299.851 1210.29H2027.28M2276.89 1210.29V1210.29C2276.89 1236.65 2276.89 1249.83 2269.12 1258.33C2268.52 1258.99 2267.89 1259.62 2267.23 1260.22C2258.72 1268 2245.54 1268 2219.19 1268H2084.99C2058.63 1268 2045.45 1268 2036.94 1260.22C2036.29 1259.62 2035.66 1258.99 2035.06 1258.33C2027.28 1249.83 2027.28 1236.65 2027.28 1210.29V1210.29M2276.89 1210.29H2027.28" stroke="url(#paint1_linear_897_1182)" stroke-width="2.97016"/>
<g filter="url(#filter1_ii_897_1182)">
<path d="M-0.078125 1071.66V17.6257C-0.078125 3.19041 11.624 -8.51172 26.0593 -8.51172H1897.86C1912.3 -8.51172 1924 3.19043 1924 17.6257V1071.66C1924 1086.09 1912.3 1097.79 1897.86 1097.79H26.0593C11.624 1097.79 -0.078125 1086.09 -0.078125 1071.66Z" fill="#4A4A4A"/>
</g>
<path d="M-0.078125 1071.66V17.6257C-0.078125 3.19041 11.624 -8.51172 26.0593 -8.51172H1897.86C1912.3 -8.51172 1924 3.19043 1924 17.6257V1071.66C1924 1086.09 1912.3 1097.79 1897.86 1097.79H26.0593C11.624 1097.79 -0.078125 1086.09 -0.078125 1071.66Z" stroke="#595959" stroke-width="2.97016"/>
<path d="M-67.3359 1132.28V-33.6633C-67.3359 -48.0987 -55.6339 -59.8008 -41.1986 -59.8008H1971.33C1985.76 -59.8008 1997.47 -48.0986 1997.47 -33.6633V1132.28C1997.47 1146.72 1985.76 1158.42 1971.33 1158.42H-41.1985C-55.6338 1158.42 -67.3359 1146.72 -67.3359 1132.28Z" stroke="#595959" stroke-width="2.97016"/>
<g filter="url(#filter2_ii_897_1182)">
<path d="M31.0547 1043.68V47.9421C31.0547 33.5068 42.7569 21.8047 57.1922 21.8047H1870.46C1884.9 21.8047 1896.6 33.5068 1896.6 47.9421V1043.68C1896.6 1058.12 1884.9 1069.82 1870.46 1069.82H57.1921C42.7568 1069.82 31.0547 1058.12 31.0547 1043.68Z" fill="#4A4A4A"/>
</g>
<path d="M31.0547 1043.68V47.9421C31.0547 33.5068 42.7569 21.8047 57.1922 21.8047H1870.46C1884.9 21.8047 1896.6 33.5068 1896.6 47.9421V1043.68C1896.6 1058.12 1884.9 1069.82 1870.46 1069.82H57.1921C42.7568 1069.82 31.0547 1058.12 31.0547 1043.68Z" stroke="#595959" stroke-width="2.97016"/>
<g filter="url(#filter3_ddi_897_1182)">
<path d="M1741.32 1031.35H179.024C140.783 1031.35 121.663 1031.35 108.24 1019.65C94.8184 1007.95 92.2728 989.455 87.1817 952.469C74.7857 862.414 57.2063 707.602 57.2031 553.861C57.1998 397.186 75.4585 228.841 87.8831 132.425C92.749 94.6655 95.1819 75.7857 108.641 63.9495C122.101 52.1133 141.499 52.1133 180.295 52.1133H1742.55C1781.06 52.1133 1800.31 52.1133 1813.67 63.5832C1827.02 75.053 1829.9 93.8503 1835.64 131.445V131.446C1881.03 428.434 1880.01 631.543 1834.79 950.654C1829.37 988.933 1826.66 1008.07 1813.25 1019.71C1799.85 1031.35 1780.34 1031.35 1741.32 1031.35Z" fill="url(#paint2_linear_897_1182)" shape-rendering="crispEdges"/>
</g>
</g>
</g>
<defs>
<filter id="filter0_d_897_1182" x="-126.18" y="-731.42" width="2738.15" height="2130.9" filterUnits="userSpaceOnUse" color-interpolation-filters="sRGB">
<feFlood flood-opacity="0" result="BackgroundImageFix"/>
<feColorMatrix in="SourceAlpha" type="matrix" values="0 0 0 0 0 0 0 0 0 0 0 0 0 0 0 0 0 0 127 0" result="hardAlpha"/>
<feOffset dx="30" dy="80"/>
<feGaussianBlur stdDeviation="25"/>
<feComposite in2="hardAlpha" operator="out"/>
<feColorMatrix type="matrix" values="0 0 0 0 0 0 0 0 0 0 0 0 0 0 0 0 0 0 0.4 0"/>
<feBlend mode="normal" in2="BackgroundImageFix" result="effect1_dropShadow_897_1182"/>
<feBlend mode="normal" in="SourceGraphic" in2="effect1_dropShadow_897_1182" result="shape"/>
</filter>
<filter id="filter1_ii_897_1182" x="-10.473" y="-18.9066" width="1944.87" height="1127.09" filterUnits="userSpaceOnUse" color-interpolation-filters="sRGB">
<feFlood flood-opacity="0" result="BackgroundImageFix"/>
<feBlend mode="normal" in="SourceGraphic" in2="BackgroundImageFix" result="shape"/>
<feColorMatrix in="SourceAlpha" type="matrix" values="0 0 0 0 0 0 0 0 0 0 0 0 0 0 0 0 0 0 127 0" result="hardAlpha"/>
<feOffset dx="8.91049" dy="-8.91049"/>
<feGaussianBlur stdDeviation="10.3956"/>
<feComposite in2="hardAlpha" operator="arithmetic" k2="-1" k3="1"/>
<feColorMatrix type="matrix" values="0 0 0 0 0 0 0 0 0 0 0 0 0 0 0 0 0 0 0.8 0"/>
<feBlend mode="normal" in2="shape" result="effect1_innerShadow_897_1182"/>
<feColorMatrix in="SourceAlpha" type="matrix" values="0 0 0 0 0 0 0 0 0 0 0 0 0 0 0 0 0 0 127 0" result="hardAlpha"/>
<feOffset dx="-8.91049" dy="8.91049"/>
<feGaussianBlur stdDeviation="10.3956"/>
<feComposite in2="hardAlpha" operator="arithmetic" k2="-1" k3="1"/>
<feColorMatrix type="matrix" values="0 0 0 0 0 0 0 0 0 0 0 0 0 0 0 0 0 0 0.8 0"/>
<feBlend mode="normal" in2="effect1_innerShadow_897_1182" result="effect2_innerShadow_897_1182"/>
</filter>
<filter id="filter2_ii_897_1182" x="20.6598" y="11.4098" width="1886.34" height="1068.81" filterUnits="userSpaceOnUse" color-interpolation-filters="sRGB">
<feFlood flood-opacity="0" result="BackgroundImageFix"/>
<feBlend mode="normal" in="SourceGraphic" in2="BackgroundImageFix" result="shape"/>
<feColorMatrix in="SourceAlpha" type="matrix" values="0 0 0 0 0 0 0 0 0 0 0 0 0 0 0 0 0 0 127 0" result="hardAlpha"/>
<feOffset dx="8.91049" dy="-8.91049"/>
<feGaussianBlur stdDeviation="10.3956"/>
<feComposite in2="hardAlpha" operator="arithmetic" k2="-1" k3="1"/>
<feColorMatrix type="matrix" values="0 0 0 0 0 0 0 0 0 0 0 0 0 0 0 0 0 0 0.8 0"/>
<feBlend mode="normal" in2="shape" result="effect1_innerShadow_897_1182"/>
<feColorMatrix in="SourceAlpha" type="matrix" values="0 0 0 0 0 0 0 0 0 0 0 0 0 0 0 0 0 0 127 0" result="hardAlpha"/>
<feOffset dx="-8.91049" dy="8.91049"/>
<feGaussianBlur stdDeviation="10.3956"/>
<feComposite in2="hardAlpha" operator="arithmetic" k2="-1" k3="1"/>
<feColorMatrix type="matrix" values="0 0 0 0 0 0 0 0 0 0 0 0 0 0 0 0 0 0 0.8 0"/>
<feBlend mode="normal" in2="effect1_innerShadow_897_1182" result="effect2_innerShadow_897_1182"/>
</filter>
<filter id="filter3_ddi_897_1182" x="27.5015" y="22.4117" width="1871.4" height="1038.64" filterUnits="userSpaceOnUse" color-interpolation-filters="sRGB">
<feFlood flood-opacity="0" result="BackgroundImageFix"/>
<feColorMatrix in="SourceAlpha" type="matrix" values="0 0 0 0 0 0 0 0 0 0 0 0 0 0 0 0 0 0 127 0" result="hardAlpha"/>
<feOffset dx="8.91049" dy="-8.91049"/>
<feGaussianBlur stdDeviation="10.3956"/>
<feComposite in2="hardAlpha" operator="out"/>
<feColorMatrix type="matrix" values="0 0 0 0 0 0 0 0 0 0 0 0 0 0 0 0 0 0 0.8 0"/>
<feBlend mode="normal" in2="BackgroundImageFix" result="effect1_dropShadow_897_1182"/>
<feColorMatrix in="SourceAlpha" type="matrix" values="0 0 0 0 0 0 0 0 0 0 0 0 0 0 0 0 0 0 127 0" result="hardAlpha"/>
<feOffset dx="-8.91049" dy="8.91049"/>
<feGaussianBlur stdDeviation="10.3956"/>
<feComposite in2="hardAlpha" operator="out"/>
<feColorMatrix type="matrix" values="0 0 0 0 0 0 0 0 0 0 0 0 0 0 0 0 0 0 0.8 0"/>
<feBlend mode="normal" in2="effect1_dropShadow_897_1182" result="effect2_dropShadow_897_1182"/>
<feBlend mode="normal" in="SourceGraphic" in2="effect2_dropShadow_897_1182" result="shape"/>
<feColorMatrix in="SourceAlpha" type="matrix" values="0 0 0 0 0 0 0 0 0 0 0 0 0 0 0 0 0 0 127 0" result="hardAlpha"/>
<feOffset/>
<feGaussianBlur stdDeviation="44.5524"/>
<feComposite in2="hardAlpha" operator="arithmetic" k2="-1" k3="1"/>
<feColorMatrix type="matrix" values="0 0 0 0 0 0 0 0 0 0 0 0 0 0 0 0 0 0 0.85 0"/>
<feBlend mode="normal" in2="shape" result="effect3_innerShadow_897_1182"/>
</filter>
<linearGradient id="paint0_linear_897_1182" x1="1212.89" y1="-113.426" x2="1212.89" y2="1268" gradientUnits="userSpaceOnUse">
<stop stop-color="#444444"/>
<stop offset="0.460303" stop-color="#918E8E"/>
<stop offset="1" stop-color="#444444"/>
</linearGradient>
<linearGradient id="paint1_linear_897_1182" x1="1212.89" y1="-113.426" x2="1212.89" y2="1268" gradientUnits="userSpaceOnUse">
<stop stop-color="#606060"/>
<stop offset="0.515" stop-color="white" stop-opacity="0.485"/>
<stop offset="1" stop-color="#606060"/>
</linearGradient>
<linearGradient id="paint2_linear_897_1182" x1="36.8648" y1="542.37" x2="1868.58" y2="542.37" gradientUnits="userSpaceOnUse">
<stop stop-color="#70F7EB"/>
<stop offset="0.0978635" stop-color="#77FFF3" stop-opacity="0.962844"/>
<stop offset="0.500429" stop-color="#1C968B" stop-opacity="0.81"/>
<stop offset="1" stop-color="#085555"/>
</linearGradient>
<clipPath id="clip0_897_1182">
<rect width="1920" height="1080" fill="white"/>
</clipPath>
</defs>
</svg>
