<svg width="613" height="817" viewBox="0 0 613 817" fill="none" xmlns="http://www.w3.org/2000/svg">
<g filter="url(#filter0_d_897_952)">
<path d="M17.0026 759.579V35.2505C17.0026 23.4883 25.2497 13.3379 36.7751 10.99C49.6501 8.36707 64.8741 5.32336 69.4508 4.64549C77.8301 3.4044 123.326 4.33487 123.326 4.33487H572.5L591.802 7.80409L609.141 15.0579V793.11L605.542 798.471L598.018 800.679H495.293L244.698 798.471L128.56 793.11L39.3854 784.286C26.6824 783.029 17.0026 772.344 17.0026 759.579Z" fill="#342218"/>
</g>
<g filter="url(#filter1_i_897_952)">
<path d="M32.5164 746.871V35.0782C32.5164 23.3151 40.7712 13.1664 52.2879 10.7709L83.2243 4.33594H136.165H574.039C574.039 4.33594 585.703 5.60065 592.855 7.74838C599.717 9.80894 609.758 14.8835 609.758 14.8835V780.201L606.25 785.475L598.915 787.646H498.774L254.483 785.475L141.267 780.201L54.8774 771.576C42.1838 770.309 32.5164 759.628 32.5164 746.871Z" fill="url(#paint0_linear_897_952)"/>
</g>
<defs>
<filter id="filter0_d_897_952" x="0.862066" y="0.275862" width="612.003" height="816.542" filterUnits="userSpaceOnUse" color-interpolation-filters="sRGB">
<feFlood flood-opacity="0" result="BackgroundImageFix"/>
<feColorMatrix in="SourceAlpha" type="matrix" values="0 0 0 0 0 0 0 0 0 0 0 0 0 0 0 0 0 0 127 0" result="hardAlpha"/>
<feOffset dx="-6.2069" dy="6.2069"/>
<feGaussianBlur stdDeviation="4.96552"/>
<feComposite in2="hardAlpha" operator="out"/>
<feColorMatrix type="matrix" values="0 0 0 0 0 0 0 0 0 0 0 0 0 0 0 0 0 0 0.5 0"/>
<feBlend mode="normal" in2="BackgroundImageFix" result="effect1_dropShadow_897_952"/>
<feBlend mode="normal" in="SourceGraphic" in2="effect1_dropShadow_897_952" result="shape"/>
</filter>
<filter id="filter1_i_897_952" x="13.8949" y="4.33594" width="595.863" height="785.793" filterUnits="userSpaceOnUse" color-interpolation-filters="sRGB">
<feFlood flood-opacity="0" result="BackgroundImageFix"/>
<feBlend mode="normal" in="SourceGraphic" in2="BackgroundImageFix" result="shape"/>
<feColorMatrix in="SourceAlpha" type="matrix" values="0 0 0 0 0 0 0 0 0 0 0 0 0 0 0 0 0 0 127 0" result="hardAlpha"/>
<feOffset dx="-18.6207" dy="2.48276"/>
<feGaussianBlur stdDeviation="12.4138"/>
<feComposite in2="hardAlpha" operator="arithmetic" k2="-1" k3="1"/>
<feColorMatrix type="matrix" values="0 0 0 0 0 0 0 0 0 0 0 0 0 0 0 0 0 0 0.25 0"/>
<feBlend mode="normal" in2="shape" result="effect1_innerShadow_897_952"/>
</filter>
<linearGradient id="paint0_linear_897_952" x1="321.137" y1="4.33594" x2="321.137" y2="787.646" gradientUnits="userSpaceOnUse">
<stop stop-color="#3F2618"/>
<stop offset="1" stop-color="#543524" stop-opacity="0"/>
</linearGradient>
</defs>
</svg>
